<svg xmlns="http://www.w3.org/2000/svg" xmlns:xlink="http://www.w3.org/1999/xlink" id="Layer_1" x="0px" y="0px" viewBox="0 0 160 46" style="enable-background:new 0 0 160 46;" xml:space="preserve"><style type="text/css">	.st0{fill:url(#SVGID_1_);}	.st1{fill:#FFFFFF;}</style><g>	<g>		<linearGradient id="SVGID_1_" gradientUnits="userSpaceOnUse" x1="151.4583" y1="8.6448" x2="158.431" y2="1.6721">			<stop offset="0" style="stop-color:#ED362D"></stop>			<stop offset="1" style="stop-color:#F68D21"></stop>		</linearGradient>		<path class="st0" d="M154.9,10.1c-2.7,0-4.9-2.2-4.9-4.9s2.2-4.9,4.9-4.9c2.7,0,4.9,2.2,4.9,4.9S157.7,10.1,154.9,10.1z    M154.9,2.8c-1.3,0-2.4,1.1-2.4,2.4s1.1,2.4,2.4,2.4c1.3,0,2.4-1.1,2.4-2.4S156.3,2.8,154.9,2.8z"></path>		<g>			<path class="st1" d="M118,21.1C118,21.1,118,21.1,118,21.1C118,21.1,118,21.1,118,21.1V8.7h-4.8v2.4c-2.2-1.8-5-2.8-8-2.8    c-7.1,0-12.8,5.7-12.8,12.8s5.7,12.8,12.8,12.8c3,0,5.8-1.1,8-2.8v2.1h0l0,0c0,4.4-3.6,8-8,8c-3.3,0-6.1-2-7.4-4.8l-4.4,1.8    c1.9,4.6,6.5,7.8,11.8,7.8c7.1,0,12.8-5.7,12.8-12.8c0-0.1,0-0.4,0-0.4V21.1z M105.2,29.1c-4.4,0-8-3.6-8-8s3.6-8,8-8    c4.4,0,7.9,3.5,8,7.8v0.5C113.1,25.6,109.5,29.1,105.2,29.1z"></path>			<path class="st1" d="M141.4,8.7v2.4c-2.2-1.8-5-2.9-8-2.9c-7.1,0-12.8,5.7-12.8,12.8s5.7,12.8,12.8,12.8c3,0,5.8-1.1,8-2.9v2.4    h4.8V8.7H141.4z M133.4,29.1c-4.4,0-8-3.6-8-8s3.6-8,8-8s8,3.6,8,8S137.8,29.1,133.4,29.1z"></path>			<path class="st1" d="M44.2,11.1c-2.2-1.8-5-2.9-8-2.9c-7.1,0-12.8,5.7-12.8,12.8s5.7,12.8,12.8,12.8c3,0,5.8-1.1,8-2.9v2.4H49    V8.7h-4.8V11.1z M36.2,29.1c-4.4,0-8-3.6-8-8s3.6-8,8-8s8,3.6,8,8S40.6,29.1,36.2,29.1z"></path>			<rect x="85" y="8.7" class="st1" width="4.8" height="24.6"></rect>			<path class="st1" d="M18.5,15.4l3.4-3.4c-5-5-13.1-5-18.1,0c-5,5-5,13.1,0,18.1c2.5,2.5,5.8,3.7,9,3.7c3.3,0,6.5-1.2,9-3.7    l-3.4-3.4c-3.1,3.1-8.2,3.1-11.4,0C4,23.6,4,18.5,7.1,15.4C10.2,12.2,15.3,12.2,18.5,15.4z"></path>		</g>	</g>	<path class="st1" d="M52.7,21.1v12.3h4.8V21.1c0-4.4,3.6-8,8-8V8.3C58.4,8.3,52.7,14,52.7,21.1"></path>	<path class="st1" d="M72.7,21.2v-7.7h7.8V8.8h-7.8V1.2h-4.8v19.9c0,7.1,5.7,12.8,12.8,12.8v-4.8C76.3,29.2,72.7,25.6,72.7,21.2"></path></g></svg>